# xmcd CD database file
#
# Track frame offsets:
#	150
#	12720
#	26276
#	40226
#	54801
#	71419
#	84631
#	97610
#	110850
#	125269
#	140126
#	153020
#	165175
#	179448
#	194898
#
# Disc length: 2813 seconds
#
# Revision: 1
# Processed by: cddbd v1.5.2PL0 Copyright (c) Steve Scherf et al.
# Submitted via: CDex 1.51
#
DISCID=c00afb0f
DTITLE=Thomas Maguire and Fhiona Ennis - We're Still Together
DYEAR=1900
DGENRE=Country
TTITLE0=Thomas Maguire and Fhiona Ennis - Please Feed The Jukebox - Thomas
TTITLE1=Thomas Maguire and Fhiona Ennis - Never Mind - Fhiona
TTITLE2=Thomas Maguire and Fhiona Ennis - We're Still Together
TTITLE3=Thomas Maguire and Fhiona Ennis - Cannibals - Thomas
TTITLE4=Thomas Maguire and Fhiona Ennis - Long Before Your Time - Fhiona
TTITLE5=Thomas Maguire and Fhiona Ennis - We Were Made For Each Other
TTITLE6=Thomas Maguire and Fhiona Ennis - Somewhere My Love - - Thomas
TTITLE7=Thomas Maguire and Fhiona Ennis - A Rose Has To Die - Fhiona
TTITLE8=Thomas Maguire and Fhiona Ennis - Little Homestead Cottage - Thomas
TTITLE9=Thomas Maguire and Fhiona Ennis - When The Morning Comes
TTITLE10=Thomas Maguire and Fhiona Ennis - Love Me Tonight - Fhiona
TTITLE11=Thomas Maguire and Fhiona Ennis - What Goes Around - Thomas
TTITLE12=Thomas Maguire and Fhiona Ennis - Tennessee Waltz - Fhiona
TTITLE13=Thomas Maguire and Fhiona Ennis - End Of The Line - Thomas
TTITLE14=Thomas Maguire and Fhiona Ennis - Help - Fhiona
EXTD=
EXTT0=
EXTT1=
EXTT2=
EXTT3=
EXTT4=
EXTT5=
EXTT6=
EXTT7=
EXTT8=
EXTT9=
EXTT10=
EXTT11=
EXTT12=
EXTT13=
EXTT14=
PLAYORDER=
